<?xml version="1.0" encoding="UTF-8"?>
<!DOCTYPE svg PUBLIC "-//W3C//DTD SVG 1.1//EN" "http://www.w3.org/Graphics/SVG/1.1/DTD/svg11.dtd">
<!-- Creator: CorelDRAW 2017 -->
<svg xmlns="http://www.w3.org/2000/svg" xml:space="preserve" width="66.1458mm" height="66.1458mm" version="1.1" style="shape-rendering:geometricPrecision; text-rendering:geometricPrecision; image-rendering:optimizeQuality; fill-rule:evenodd; clip-rule:evenodd"
viewBox="0 0 6614.58 6614.58"
 xmlns:xlink="http://www.w3.org/1999/xlink">
 <defs>
  <style type="text/css">
   <![CDATA[
    .fil0 {fill:#FEFEFE}
   ]]>
  </style>
 </defs>
 <g id="Слой_x0020_1">
  <metadata id="CorelCorpID_0Corel-Layer"/>
  <g id="_2743417496912">
   <path class="fil0" d="M912.14 4040.66l0 -1465.2c0,-89.6 12.74,-547.26 35.8,-681.85 13.15,-76.72 33.28,-182.6 58.15,-252.83 52.42,-148.03 125.34,-280.42 236.46,-391.48 55.57,-55.53 76.21,-72.26 136.92,-114.26 58.37,-40.38 102.86,-64.93 169.98,-93.16 69.39,-29.19 169.01,-62.22 242.61,-74.35 189.93,-31.32 165.67,-25.42 370.3,-42.35l203.1 -6.22c41.91,0.25 56.91,-6.21 95.4,-6.26l1573.05 0.2c140.73,0 265.59,10.14 400.92,11.73l286.91 24.08c147.75,25.31 267.74,53.09 400.61,119.68 139.59,69.97 245.38,162.12 339.12,282.84 64.38,82.94 102.78,179.31 141.94,276.68 46.68,116.05 70.53,313.52 80.78,439.53 1.41,17.35 -0.6,36.16 0.29,53.53 1.33,25.89 4.63,21.86 6.03,47.79 3.8,70.42 6.1,133.13 5.81,203.5 -0.17,40.78 6.43,54.63 6.26,95.41l-0.14 1572.99c0,197.25 -8.92,353.73 -23.57,544.57 -7.31,95.32 -19.21,224.41 -48.92,315.87 -55.18,169.79 -60.28,200.28 -165.54,354.76 -47.51,69.73 -136.58,159.9 -205.7,206.95l-109.34 70.07c-9.52,5.08 -9.07,5.16 -19.19,10.71 -80.1,43.98 -146.52,59.6 -225.37,85.61 -79.83,26.34 -273.75,51.52 -362.54,56.09l-101.5 6.15c-137.6,4.08 -264.94,11.77 -406.86,11.77l-2055.63 -25.56c-125.73,-16.49 -217.21,-28.53 -341.84,-70.8 -285.94,-97.01 -481.47,-276.8 -597.1,-545.16 -11.35,-26.33 -19.31,-50.74 -29.9,-77.75 -45.55,-116.28 -68.85,-309.85 -79.05,-435.27 -1.41,-17.35 0.6,-36.16 -0.29,-53.52 -1.33,-25.89 -4.63,-21.87 -6.03,-47.8 -3.8,-70.42 -6.1,-133.13 -5.81,-203.5 0.17,-40.78 -6.43,-54.62 -6.26,-95.41 0.14,-35.93 0.14,-71.85 0.14,-107.78zm-538.24 -926.97l5.84 1064.66c-0.15,36.64 5.38,46.24 6.32,77.41 0.82,27.56 -0.78,56.46 -0.44,84.15 0.42,33.94 6.38,41.37 6.43,77.31 0.04,29.97 -0.23,60.06 -0.35,90.05 -0.2,49.08 8.75,108.72 11.89,155.56 7.07,105.45 25.87,194.64 45.55,295.33 15.95,81.58 47.45,184.96 78.57,262.32 184.91,459.55 510.28,755.9 977.12,906.7 21.58,6.98 45.68,11.87 65.87,17.86 126.61,37.57 384.35,74.62 519.38,78.66l245.47 5.71c38.44,-0.23 51.65,5.3 83.45,6.25 110.38,3.3 235.48,-6.37 335.98,4.91 77.5,8.7 1317.92,-3.42 1434.66,-4.87 33.94,-0.42 41.37,-6.37 77.3,-6.42 26.95,-0.04 57.46,1.67 83.96,0.23l167.66 -5.77c60.1,-0.74 247.86,-22.89 314.27,-32.59l399.69 -108.65c69.31,-26.27 168.33,-73 228.28,-112.59 66.8,-44.11 143.11,-91.49 201.29,-145.58l170.41 -170.47c47.95,-51.49 101.63,-139.25 141.51,-199.38 13.32,-20.08 17.71,-32.99 30.05,-53.67l57.22 -116.22c9.77,-19.97 15.47,-38.81 23.85,-59.87 33.41,-84.04 62.96,-177.82 80.31,-266.56 10.15,-51.92 21.61,-91.74 27.41,-146.02 5.41,-50.73 14.51,-95.48 18.14,-149.31 3.36,-49.79 12.13,-108.6 11.83,-161.6 -0.16,-27.96 -0.33,-56.06 -0.29,-84.01 0.05,-35.94 6.01,-43.37 6.43,-77.31 0.34,-27.69 -1.26,-56.59 -0.44,-84.15 0.95,-31.81 6.48,-45.02 6.26,-83.46 -1.95,-339.93 5.9,-698.3 5.9,-1046.65 0,-232.26 -7.13,-445.37 -5.94,-675.82 0.53,-103.04 -12.56,-212.64 -11.96,-328.92 0.55,-107.46 -18.86,-215.66 -29.44,-311.44 -10.06,-91.05 -37.54,-192.71 -60.25,-280.64 -6.28,-24.3 -13.41,-39.06 -21.18,-62.55 -75.14,-227.09 -185.33,-415.96 -354.15,-584.77 -121.26,-121.26 -233.32,-210.64 -392.2,-289.57l-242.45 -98.43c-20.89,-7.66 -40.32,-11.61 -65.32,-18.41 -19.15,-5.2 -41.9,-13.06 -64.87,-18.86 -150.23,-37.94 -301.46,-45.91 -451.55,-62.76 -54.01,-6.06 -111.19,4.61 -164.05,-3.4 -111.96,-16.94 -430.74,-4.21 -500.53,-13.78 -56.58,-7.75 -697.61,-1.63 -799.75,-1.63 -95.11,0 -245.59,-9.06 -334.02,0.87 -102.76,11.54 -227.94,-3.48 -335.47,5.42l-160.15 7.3c-51.1,7.01 -112.1,-0.03 -168.77,4.66 -420.88,34.83 -801.46,109.84 -1129.21,401.77 -17.66,15.73 -26.98,20.93 -44.79,38.95 -185.72,187.89 -274.98,305.69 -375.18,557.76l-45.45 127.97c-20.58,73.35 -53.5,203.7 -61.78,279.11 -18.82,171.25 -30.99,211.64 -30.24,394.37 0.15,36.64 -5.38,46.25 -6.31,77.41 -0.83,27.56 0.77,56.46 0.43,84.16 -0.43,34.54 -6.52,45.07 -6.36,83.35 0.94,230.85 -5.84,443.63 -5.84,675.92z"/>
   <path class="fil0" d="M2335.47 3352.91c0,-188.03 5.93,-202.14 56.33,-374.27 6.37,-21.76 8.6,-24.14 17.43,-42.37 36.23,-74.76 44.46,-109.56 103.97,-189.06 66.32,-88.59 107.61,-132.17 194.82,-205.87 12.37,-10.45 22.51,-15.54 35.03,-24.78 93.08,-68.72 203.59,-118.39 317.21,-149.26 175.43,-47.64 317.29,-37.09 489.88,-1.8 35.29,7.21 51.93,16.9 86.56,27.07 26.86,7.88 60.27,23.27 84.31,35.3 119,59.53 183.46,104.86 272.53,193.94 83.68,83.67 137.44,154.94 191.95,268.54 158.99,331.33 113.43,719.12 -106.17,1010.33 -42.24,56.02 -118.41,128.16 -172.76,174.09 -12.37,10.46 -22.51,15.54 -35.03,24.78 -70.08,51.75 -109.16,68.81 -184.38,102.68l-132.75 46.66c-230.24,56.19 -445.59,39.02 -660.78,-60.69 -107.09,-49.62 -133.92,-75.96 -211.29,-135.57l-117.08 -116.16c-128.05,-164.83 -229.78,-366.2 -229.78,-583.56zm956.87 -1548.93c-12.18,2.94 -71.43,-1 -89.74,-0.03 -83.9,4.48 -168.26,22.11 -247.69,39.37 -146.98,31.94 -249.14,77.75 -371.37,142.95 -123.98,66.14 -252.73,166.41 -351.23,264.75 -80.56,80.43 -183.46,216.69 -240.7,321.45 -89.01,162.88 -111.72,237.46 -156.11,412.03 -18.76,73.79 -42.39,262.98 -34.11,339.95 5.67,52.7 -0.19,77.27 12.03,173.74 24.04,189.75 68.24,332.45 155.19,502.66l70.2 121.18c13.98,20.8 24.39,37.94 38.6,57.09 67.76,91.3 112.38,142.69 194.59,224.03 13.48,13.34 9.24,10.29 24.98,22.87 62.39,49.85 85.51,76.81 160.46,126.59l84.87 52.69c10.86,6.57 17.66,12.03 29.4,18.44 23.46,12.82 40.58,21.85 62.78,32.9 22.39,11.15 39.9,20.52 64.93,30.76 150.64,61.64 140.41,55.86 284.32,92.45 171.58,43.63 418.56,44.23 598.21,10.91 31.13,-5.77 48.18,-11.55 77.72,-17.97 166.34,-36.15 377.55,-130.11 518.68,-234.85 143.76,-106.69 273.99,-230.2 373.5,-380.03l134.79 -241.98c16.33,-39.92 39.85,-90.66 51.76,-133.63l40.68 -150.69c28.67,-112.76 41.48,-311.79 31.97,-427.9 -19.11,-233.18 -71.76,-412.78 -181.97,-619.4 -25.06,-46.98 -97.34,-162.23 -130.21,-198.71 -79.21,-87.93 -104.31,-134.75 -206.96,-217.65 -87.59,-70.73 -141.06,-117.89 -249.1,-175.51 -122.03,-65.09 -202.59,-100.6 -334.26,-138.2 -82.25,-23.48 -245.66,-51.13 -332.52,-50.22 -46.23,0.49 -47.72,-5.51 -66.38,-4.82 -35.98,1.34 0.91,0.4 -17.31,4.78z"/>
   <path class="fil0" d="M5224.01 1762.12c0,-64.48 -3.1,-108.73 -33.8,-169.54 -106.53,-211.02 -361.62,-260.35 -531.06,-132.18 -25.75,19.48 -46.93,40.03 -67.4,64.17 -100.03,117.94 -102.36,314.05 -3.16,436.4 232.72,287.06 635.42,88.8 635.42,-198.85z"/>
  </g>
 </g>
</svg>
