<?xml version="1.0" encoding="UTF-8"?>
<!DOCTYPE svg PUBLIC "-//W3C//DTD SVG 1.1//EN" "http://www.w3.org/Graphics/SVG/1.1/DTD/svg11.dtd">
<!-- Creator: CorelDRAW 2017 -->
<svg xmlns="http://www.w3.org/2000/svg" xml:space="preserve" width="66.1458mm" height="66.1458mm" version="1.1" style="shape-rendering:geometricPrecision; text-rendering:geometricPrecision; image-rendering:optimizeQuality; fill-rule:evenodd; clip-rule:evenodd"
viewBox="0 0 6614.58 6614.58"
 xmlns:xlink="http://www.w3.org/1999/xlink">
 <defs>
  <style type="text/css">
   <![CDATA[
    .fil5 {fill:#20B4C5}
    .fil10 {fill:#26A0AF}
    .fil4 {fill:#27B1E0}
    .fil11 {fill:#2C8B9C}
    .fil3 {fill:#2CE9EE}
    .fil8 {fill:#30E9EF}
    .fil1 {fill:#34CFDF}
    .fil9 {fill:#45E8EF}
    .fil6 {fill:#49D7E2}
    .fil12 {fill:#49E7EF}
    .fil7 {fill:#5AE3F0}
    .fil2 {fill:#71D5EF}
    .fil19 {fill:#A5BDD2}
    .fil16 {fill:#ABC3D5}
    .fil13 {fill:#ACC7D9}
    .fil17 {fill:#B2C7D9}
    .fil15 {fill:#B4CBDB}
    .fil14 {fill:#B4D4E3}
    .fil18 {fill:#BACCDD}
    .fil0 {fill:#FCFCFC}
   ]]>
  </style>
 </defs>
 <g id="Слой_x0020_1">
  <metadata id="CorelCorpID_0Corel-Layer"/>
  <g id="_2394001855040">
   <path class="fil0" d="M3843.92 5007.06c-22.73,38.61 -45.95,61.85 -106.21,63 -52.11,0.99 -104.71,3.96 -149.87,-15.85 -73.66,-32.31 -117.81,-114.63 -141.42,-188.91 -53.99,-169.87 -104.71,-335.23 -165.55,-494.09 -48.85,-127.55 -329.36,-856.86 -330.17,-989.83 -11.38,-14.35 -7.89,-76.88 -8.45,-99.23 -5.1,-202.52 -12.18,-1338.08 6.81,-1407.69 13.26,-48.61 49.47,-106.49 110.77,-86 88.02,22.83 166.34,75.75 231.21,118.59l620.26 397.03c71.56,45.44 130.09,101.04 192.47,151.22 180,144.78 165.76,166.28 317.54,46.75 86.4,-68.05 202.74,-180.2 292.12,-222.39 6.38,-10.12 198.28,-134.82 226.43,-152.67l469.05 -294.1c35.85,-22.69 91.63,-52.41 140.94,-46.12 44.49,5.67 84.04,49.87 80.73,103.75 22.64,24.44 9.46,115.82 9.28,154.34l0.55 804.24c-1.73,166.2 13.59,472.18 -24.69,608.39l-154.51 491.51c-6.21,17.24 -84.25,230.13 -88.23,221.31 -0.49,-1.09 -2.29,2.78 -3.62,3.99 -2.66,31.69 -23.23,72.47 -35.44,105.16 -5.98,15.99 -12.63,32.94 -18.86,49.77l-26 48.89c2.66,31.29 -64.84,196.24 -80.59,243.39 -47.59,142.53 -85.7,383.58 -225.4,435.31 -47,17.4 -169.65,27.24 -214.84,-7.84 -7.9,-6.14 -13.68,-12.34 -20.48,-20.99 -15.46,-19.64 -6.84,-6.16 -12.25,-20.27l-6.9 -7.54c-0.77,-1.04 -2.25,-2.81 -3.06,-4.01 -65.24,-97.37 12.42,-409.29 32.05,-516.38 20.56,-112.19 75.51,-404.29 102.65,-502.2 53.02,-191.34 84.2,-532.81 83.87,-736.68 -0.11,-66.07 3.39,-141.65 -0.9,-206.55 -17.08,-258.8 -241.23,-3.71 -307.77,80.81 -30.87,39.22 -148.44,218.99 -173.47,234.98 -5.37,25.93 -37.3,66.57 -56.16,79.01 -9.13,26.17 -42.02,62.56 -65.18,78.36 -33.09,22.58 -77.79,18.62 -109.65,-3.96 -44.76,-31.71 -197.17,-263.94 -239.11,-325.2 -68.77,-100.44 -84.63,-95.25 -126.06,-150.87 -38.03,-19.96 -160.28,-170.4 -212.8,-70.23 -25,47.71 -21.77,395.25 -16.47,474.27 18.34,273.23 125.25,731.96 180.41,1001.47 21.96,107.34 114.19,504.11 26.97,574.06zm-1473.86 -2488.32c-44.23,-14.3 -105.11,-61.41 -138.29,-88.74 -23.71,-19.54 -39.77,-34.8 -61.97,-54.99 -17.54,-15.96 -35.22,-39.74 -55.33,-49.2 -54.07,-36.02 -159.39,-101.51 -170.76,15.54 -10.71,110.34 -3.34,407.62 -5.59,542.12 -3.92,234.6 -22.78,212.81 162.36,385.79l206.21 206.3c141.46,140.36 384.46,342.55 420.58,533.79 22.37,118.47 -5.97,220.41 -71.01,315.88 -42.76,62.78 -196.72,216.14 -263.55,279.3 -28.76,27.18 -45.66,44.82 -69.2,68.3 -41.98,41.84 -232.45,243.65 -278.59,269.1l-42.88 26.27c-10.58,14.12 -6.28,9.69 -22.08,21.69 -11.07,8.42 -8.93,7.93 -22.82,13.54l-31.46 41.75c-20.24,39.31 -10.98,256.26 -11.21,313.18 -0.19,47.91 -4.31,67.85 -39.96,92.69 -51.09,38.64 -61.2,28.97 -137.55,29.16 -63.98,0.16 -96.85,-1.3 -109.02,-61.68 -14.39,-71.43 -3.09,-253.96 -5.02,-338.63 -104.78,-15.98 -169.12,-0.48 -262.56,-46.27 -142.67,-69.92 -436.47,-344.15 -425.23,-493.29 -17.1,-22.01 -10.07,-41.78 -2.87,-76.83 10.3,-50.16 50.96,-154.8 92.38,-173.68 15.91,-27.14 61.36,-36.5 94.9,-44.41 83.06,-65.66 303,178.56 352.7,209.07 36.62,22.48 99.91,50.47 135.35,9.97 16.93,-47.51 -4.89,-172.31 14.82,-202.84l-2.05 -598.24c-47.6,-63.23 -405.01,-412.34 -466.02,-472.13 -163.8,-160.54 -365.34,-316.75 -324.1,-572.47 27.98,-172.13 133.49,-263.87 242.35,-372.29l386.25 -383.76c175.16,-178.05 193.16,-46.25 189.85,-264.67 -0.9,-59.33 -7.33,-246.44 16.09,-285.64 22.63,-37.89 187.82,-49.94 233.25,4.17 87.88,47.74 -10.58,283.61 72.34,372.32 182.39,3.82 272.6,68.24 371.25,146.9 22.2,13.16 29.58,24.14 45.33,40.31l79.15 79.04c14.25,13.98 24.24,23.93 37.17,38.39 113.33,126.8 177.43,277.53 70.35,434.05 -25.27,36.94 -35.32,56.6 -80.37,78.06 -23.49,11.2 -102.14,40.2 -123.19,13.08zm-1918.39 770.29c0,121.37 7.59,248.22 22.49,362.44 26.12,200.22 69.96,385.13 129.53,571.61l182.41 422.49c48.01,95.14 104.29,188.07 164.54,275.39l111.19 150.01c15.03,18.08 25.65,30.56 40.82,48.54l55.35 68.38c67.42,75.24 162.56,183.05 239.4,241.77l291.55 230.86c200.15,132.53 411.25,249.44 638.38,330.84 228.52,81.9 470.79,135.42 715.28,157.7 129.92,11.83 237.87,13.24 371.69,13.24 82.22,0 231.58,-18.2 314.34,-29.35 381.89,-51.45 749.78,-195.45 1078.28,-392.74 20.05,-12.04 33.96,-22.58 53.64,-35.71 54.72,-36.48 104.19,-66.11 153.74,-107.46 62.49,-52.14 129.86,-99.31 188.83,-154.87l137.57 -130.51c237.78,-237.78 424.69,-517.51 566.58,-821.94 10.39,-22.3 13.94,-35.36 25.12,-57.37l49.88 -121.97c43.54,-112.92 71.58,-217.15 101.83,-338.09 81.12,-324.33 100.37,-690.75 54.21,-1022.05 -7.97,-57.24 -11.81,-106.17 -21.99,-156.73 -38.17,-189.53 -95.22,-367.26 -159.54,-548.47 -15.33,-43.19 -36.47,-84.15 -53.18,-125.54 -9.76,-24.17 -14.9,-33.91 -26.98,-55.51 -53.16,-95.07 -98.83,-196.2 -159.53,-287.27l-311.05 -403.82c-16.59,-16.39 -28.47,-28.03 -44.85,-44.52 -16.47,-16.58 -25.14,-33.03 -42.69,-46.66 -45.76,-35.54 -116.4,-111.73 -184.77,-165.8 -65.64,-51.91 -131.91,-108.78 -201.6,-155.84 -19.17,-12.94 -35.51,-23.64 -53.65,-35.72 -18.23,-12.15 -36.74,-22.11 -55.05,-34.31 -154.96,-103.24 -358.96,-201.37 -534.16,-263.21l-203.91 -64.17c-201.12,-66.49 -572.53,-115.9 -780.14,-109.9 -219.25,6.33 -448.65,26.56 -633.31,72.96l-473.4 152.12c-21.63,8.73 -37.39,17.77 -61.8,27.56 -129.57,51.95 -341.05,170.92 -452.71,255.3l-103.09 75.63c-36.44,27.26 -64.34,52.06 -99.14,79.58 -72.82,57.59 -228.64,201.31 -292.65,277.88 -10.85,12.98 -9.12,14.06 -20.9,27.21 -123.98,138.41 -252.47,301.49 -336.17,468.07 -12.38,24.63 -19.83,32.61 -32.21,57.15l-61.82 116.91c-100.77,201.49 -145.32,374.89 -208.35,589.01 -48.45,164.57 -78.01,456.28 -78.01,636.88z"/>
   <path class="fil1" d="M1621.07 2591.93l0.76 116.84 -5.6 101.71c-5.83,-14.14 -99.88,-90.21 -108.02,-136.33 -9.05,-51.24 75.3,-123.37 110.36,-120.99l2.5 38.77zm-790.83 26.85c23.55,2.13 13.53,1.14 15.6,14.23 2.13,13.43 -19.8,2.52 7.08,12.36l26.94 7.91c21.64,7.42 -5.53,0.3 20.64,6.84 17.69,4.42 54.04,11.71 41.53,35.25 37.43,1.16 33.79,-2.43 41.33,30 -1.27,0.66 -3.77,-0.71 -4.23,0.76 -0.44,1.39 -3.43,0.55 -4.01,0.59l-12.25 0.66c-11.35,5.26 -10.96,7.7 -11.88,25.49 1.06,0.51 9.28,3.99 10.33,4.06l41.16 6.13c25.4,8.43 5.5,-1.53 24.98,11.43l51.72 41.8c0.49,0.29 2.15,1.31 2.57,1.62 10.72,7.87 3.6,0.95 5.56,6.75 16.58,-24.59 -1.05,-11.09 24.25,-25.89l89.14 64.88c16.67,15.51 -2.4,18.36 12.09,35.14 20.98,24.29 38.72,-0.34 60.12,39.67l12.81 -16.06 7.84 33.26c8.18,-22.36 -11.02,-9.25 26.88,-12.99l0.72 33.6c40.99,1.57 21.04,-1.14 38.64,17.12l9.64 17.16c3.59,-2.51 4.49,-5.24 13.38,-8.39 10.84,-3.85 6.64,-2.25 20.11,-4.5 14.78,30.45 4.35,16.95 45.45,27.97l3.06 26.44c9.1,-18.28 3.24,-9.43 36.5,11.5l23.02 6.16c1.41,0.22 3.58,0.17 5.02,0.48l42.59 31.55c1.25,4.22 2.34,17.64 2.85,26.11 38.67,0.87 33.17,0.93 58.58,16.41 18.1,11.02 35.99,25.8 51.34,30.53l113.49 58.84c16.21,23.33 42.99,19.71 71.7,45.79l6.64 7.42c19.22,21.48 38.38,47.6 29.28,71.62 -9.97,26.32 5.18,-1.63 -6.87,8.88 20.85,11.39 24.26,1.81 39.85,-12.35 3.71,40.29 19.62,27.36 32.83,25.14 62.42,-10.48 55.97,26.49 103.73,44.14 41.81,15.44 40.27,-2.78 62.2,37.18 13.08,23.84 9.84,11.3 39.64,25.32 11.22,5.27 13.38,7.84 24.71,17.71l83.62 29.37c21.01,2.21 16.94,14.45 31.39,27.31 18.03,16.05 10.11,4.18 33.59,14.31 35.55,15.33 14.11,22.02 59.01,18.47 -18,-30.8 -83.59,-85.48 -113.2,-115.24l-340.22 -340.3c-50.95,-51.07 -35.98,-61.22 -35.18,-193.09 1.01,-167.16 -5.54,-553.91 6.73,-675.38 83.57,-24.95 162.05,-8.7 200.19,55.86 20.11,9.46 37.79,33.24 55.33,49.2 22.2,20.19 38.26,35.45 61.97,54.99 33.18,27.33 94.06,74.44 138.29,88.74 32.36,5.12 98.58,-14.61 124.11,-26.17 27.74,-12.58 48.87,-50.37 66.42,-84.98 41.56,-81.98 60.68,-129.37 33.48,-230.68 -28.13,-104.75 -113.06,-194.94 -181.97,-263.98 -21.09,-21.13 -57.34,-51.52 -70.48,-77.12 -98.65,-78.66 -188.86,-143.08 -371.25,-146.9l-58.02 -5.15c-24.4,-74.49 9.13,-268.69 -14.32,-367.17 -45.43,-54.11 -210.62,-42.06 -233.25,-4.17 -23.42,39.2 -16.99,226.31 -16.09,285.64 3.31,218.42 -14.69,86.62 -189.85,264.67l-386.25 383.76c-108.86,108.42 -214.37,200.16 -242.35,372.29z"/>
   <path class="fil2" d="M4461.97 3350.15c25.03,-15.99 142.6,-195.76 173.47,-234.98 66.54,-84.52 290.69,-339.61 307.77,-80.81 4.29,64.9 0.79,140.48 0.9,206.55 0.33,203.87 -30.85,545.34 -83.87,736.68 -27.14,97.91 -82.09,390.01 -102.65,502.2 -19.63,107.09 -97.29,419.01 -32.05,516.38 0.81,1.2 2.29,2.97 3.06,4.01l6.9 7.54c-13.61,-126.48 -28.95,-94.99 -5.48,-261.54 21.92,-155.56 61.11,-348.98 92.13,-500.08 14.91,-72.65 44.55,-177.95 50.88,-242.53l68.35 -337.56c5.17,21.32 7.07,18.92 7.78,47.21l31.22 13.39c19.01,6.93 1.36,-11.02 29.42,12.33l55.63 50.33c14.03,11.38 12.09,-0.14 17.96,25.94 8.43,37.41 3.69,18.75 -9.87,26.14 2.23,0.5 10.55,2.02 12.08,2.7 10.77,4.79 8.39,3.83 14.93,8.63 -1.24,1.33 -35.48,18.16 17.83,55.36 10.62,7.41 20.58,6.52 23.75,7.56l52.37 25.27c48.16,19.81 4.42,29.04 50.4,33.56 -7.32,24.63 -28.83,20.24 19.96,55.04 13.76,9.82 11.57,8.71 28.86,12.84l-19.21 34.3c34.54,-5.18 61.73,11.01 62.27,42.87 0.02,1.07 -0.29,3.43 -0.69,5.1 23.38,-9.91 11.48,-12.56 27.29,5.42 11.2,12.74 7.41,27.24 6,44.3 1.33,-1.21 3.13,-5.08 3.62,-3.99 3.98,8.82 82.02,-204.07 88.23,-221.31l154.51 -491.51c38.28,-136.21 22.96,-442.19 24.69,-608.39l-0.55 -804.24c0.18,-38.52 13.36,-129.9 -9.28,-154.34l-2.92 1247.39c-12.57,-5.94 -16.68,-2.67 -22.96,-13.01 -10.08,-16.6 17.12,-2.37 -14.43,-24.77l-20 -14.73c-43.18,-34.26 -16.36,-21.21 -25.94,-39.92 -14.15,-27.63 -13.08,14.13 -56.33,-43.08 -18.96,-25.07 -1.6,-8.92 -31.59,-22.68 -17.83,-8.18 -10.17,-8.55 -25.28,-29.82l-6.06 -7.98c-0.93,-1.16 -2.26,-2.69 -3.24,-3.81l-6.74 -7.38c-19.63,-19.71 -33.63,-27.48 -55.22,-13.15 -3.05,-36.03 2.22,-8.02 -7.22,-20.78 -0.73,-1 -2.47,-2.41 -3.27,-3.32l-11.73 -9.78c-1.99,-2.18 -2.03,-6.17 -8.71,-11.32 -10.51,-8.11 -10.63,-6.63 -24.07,-9.79 30.57,-28.52 -10.03,-37.59 -10.09,-37.63 -16.22,-11.56 -28.48,-20.33 -42.46,-33.58 -1.45,-1.38 -5.43,-5.54 -6.86,-6.96 -43,-42.96 -41.91,-50.94 -78.07,-52.43 1.88,-23.48 2.05,-76.3 -10.28,-93.01 -29.6,-40.13 -37.23,9.69 -39.9,-49.28 -19.76,18.48 -1.55,7.95 -26.62,12.87 7.23,-20.82 9.24,-2.97 -7.09,-27.08l-24.89 7.96c-12.65,-1.79 -23.63,-16.69 -31.78,-27.13 -31.88,-40.87 -21.41,-12.69 -42.41,-33.19 -21.08,-20.57 5.17,-6.96 -10,-18.83 -26.07,-20.41 -27.9,-21.22 -53.82,-70.13 -16.08,-30.36 -12.9,-18.18 4.45,-30.22 -19.44,-2.77 -11.39,-5.02 -25.12,-16.38 -27.8,-23 -5.14,6.02 -34.21,-18.45 11.74,38.84 16.02,-1.63 6.36,40.22 -17.49,-4.46 -36.21,-15.75 -45.87,-30.3 -18.22,-27.45 10.91,9.74 -3.24,-24.38 -18.71,9.8 -16.39,14.62 -48.67,0.87l-67.48 -43.88c-15.13,5.77 6.92,5.4 -5.93,1.29 -7.51,-18.9 -0.97,-4.46 12.54,-33.28 -89.38,42.19 -205.72,154.34 -292.12,222.39 -151.78,119.53 -137.54,98.03 -317.54,-46.75 -62.38,-50.18 -120.91,-105.78 -192.47,-151.22l-620.26 -397.03c-64.87,-42.84 -143.19,-95.76 -231.21,-118.59 8.97,33.79 8.06,20.47 34.1,47.43 9.32,9.66 0.13,3.79 10.44,10.5 22.79,14.84 21.76,2.6 45.85,26.62 -2.19,0.63 -13.78,-6.96 -26.15,5.12 13.97,23.93 40.59,7.04 27.92,44.1 17.79,0.47 36.11,-1.26 42.28,-1.22 50.8,0.36 11.33,10.31 48.85,40.84 8.75,7.12 4.46,4.46 17.29,10.06 -1.66,23.33 -4.27,19.88 -18.71,30.82l9.85 12.09c19.75,24.47 32.29,30.58 66.97,28.37 31.75,-2.03 0.32,1.77 24.02,-9.07 6.9,17.47 -2.85,6.13 13.75,13.75 -14.87,32.83 -8.2,-17.61 -12.26,31.36l16.96 12.73c20.97,11.42 18.66,-3.15 38.77,9.21 15.45,9.5 32.02,26.88 33.64,61.99l33.45 0.85c-13.78,13.63 -8.16,4.94 -12.41,26.3l61.97 34.12c19.76,21.69 21.88,19.02 14.18,47.39 -4.76,17.53 -0.74,26.98 8.69,38.41l18.01 24.2c10.47,9.3 26.95,17.72 39.74,36.7l26.78 27.76c37.44,26.92 16.44,9.06 35.18,34.76 8.46,11.61 4.05,6.9 12.98,12.55l19.09 8.64c60.37,30.34 32.9,59.98 68.22,66.56 19.42,3.61 25.05,20.51 38.38,31.27 21.05,16.99 -9.78,-11.4 12.23,6.8 6.36,5.26 2.69,4.03 11.22,12.95l15.01 12.43c33.11,19.6 41.47,10.43 47.89,62.62 37.37,4.24 50.52,5.95 41.6,40.89 46.66,-11.69 16.95,-0.54 24.46,6.11 11.82,10.46 13.15,-13.18 37.54,28.88 13.19,22.74 2.91,8.77 24.46,22.42 17.38,11.01 31,33.92 46.24,46.52 0.64,0.52 2.31,1.68 2.99,2.25l36.27 31.38c16.8,20.15 18.47,48.14 53.61,35.68 3.42,55.63 23.2,17.52 29.06,66.75l30.05 4.39 83.97 80.73c1.11,0.81 2.87,1.8 4.05,2.56 1.23,0.79 3.19,1.48 4.47,2.25 13.81,8.32 7.5,-2.24 20.6,15.25l12.3 21.48c0.9,0.93 2.54,2.14 3.53,2.98l82.72 61.56c15.94,11.44 22.33,25.97 40.74,34.82l18.08 30.38c18.04,20.4 37.92,27.16 53.66,49.29 -23.81,24.07 -68.01,85.03 -72.44,116.11z"/>
   <path class="fil3" d="M2953.3 2245.84l-2.6 1135.54c0.81,132.97 281.32,862.28 330.17,989.83 60.84,158.86 111.56,324.22 165.55,494.09 23.61,74.28 67.76,156.6 141.42,188.91 45.16,19.81 97.76,16.84 149.87,15.85 60.26,-1.15 83.48,-24.39 106.21,-63 49.61,-170.27 -5.19,-367.25 -38.18,-534.68 -69.61,-353.3 -148.21,-661.89 -187.1,-1023.44 -9.1,-84.6 -3.97,-207.93 -4.04,-297.39 -0.04,-48 -5.85,-164.06 15.79,-209.93 11.07,-23.46 24.3,-17.79 31.41,-36.76 16.46,-17.03 -20.14,-14.48 18.95,-14.48 -54.36,6.58 9.43,0.23 -34.65,-36.53 -0.62,-0.52 -2.23,-1.8 -2.83,-2.29l-8.16 -5.78c-14.74,-14.6 -0.47,-17.43 -21.34,-30.75 -15.9,-10.14 -24.37,-7.96 -36.41,1.62 -1.3,-31.99 -3.48,-22.17 -29.83,-53.49 -6.8,-8.09 -6.38,-7.97 -10.99,-10.49l-34.36 -25.7c-0.98,-0.98 -2.35,-2.49 -3.37,-3.42 -1.03,-0.93 -2.52,-2.28 -3.6,-3.15 -8.84,-7.14 1.31,-0.19 -12.33,-8.07 -30.07,-17.38 -16.17,-3.63 -27.28,-21.64l-13.64 -19.97c-0.92,-0.93 -2.3,-2.53 -3.32,-3.41 -1.02,-0.88 -2.54,-2.26 -3.66,-3.07l-54.64 -31.38c-40.49,-19.56 -7.53,-1.58 -21.64,-21.38l-114.05 -101.33c-65.42,-61.32 -60.16,-35.99 -53.04,-63.88 -21.85,14.02 -23.82,3.83 -42.56,-19.59 -22.84,-28.54 -23.01,-16.62 -52.22,-43.55l-37.37 -31.37c-39.25,-25.43 -12.68,-11.64 -23.96,-28.98 -5.09,-7.84 -19.53,-14.99 -30.98,-26.47l-51.22 -50.47z"/>
   <path class="fil4" d="M1620.36 3663.38l-0.11 150.61c29.32,7.41 42.22,6.08 71.68,33.85 0.63,0.6 1.87,2.22 2.47,2.78 1.11,1.03 3.8,4.26 4.95,4.97 6.91,4.24 13.23,9.52 21.25,-7.04 3.72,34.19 5.91,26.96 41,27.74 -34.42,4.74 -14.59,1.63 -26.94,13.25 24.34,6.27 9.92,7.54 28.34,10.29 31.18,4.66 10.49,7.06 19.72,-10.3 4.68,33.86 12.41,13.91 20.88,47.86l26.8 -13.05c-15.95,54.25 3.82,40.7 23.5,59.04 0.99,0.92 2.35,2.42 3.26,3.41 0.93,0.99 2.03,2.73 2.91,3.79 11.95,14.31 13.23,25.39 44.19,28.67l0.69 -67.3c9.91,15.85 1.11,16.43 2.4,42.83 10.72,-16.55 -7.22,11.29 6.41,-12.26l5.72 -9.4c0.68,-1.13 2.02,-3.37 3.2,-4.93 22.8,14.42 45.85,32.68 57.67,56.95l7.49 -1.75c9.38,-8.41 4.28,-6.1 12.84,-5.18l6.87 1.93c0.9,0.2 2.99,0.8 3.93,1.02 28.8,6.75 21.41,-1.01 31.72,27.14l23.83 -6.73c13.01,34.04 3.71,8.12 22.2,33.37 0.47,0.65 1.36,2.45 1.88,3.12 2.43,3.17 6.33,8.11 8.57,9.97 21.39,17.67 96.23,47.77 115.17,67.1 -3.48,15.54 -7.5,28.81 -12.7,43.6l68.12 4.52c6.62,12.17 3.87,11.28 14.84,22.66 1.05,1.09 2.57,2.41 3.69,3.42 1.12,1.01 2.79,2.16 3.94,3.09 43.71,35.59 25.43,69.94 59.66,77.64l70.83 26.66c0.19,0.66 0.96,2.52 1.17,3.24l4.65 17.08c27.08,5.54 28.2,0.78 46.03,6.87 -1.8,-29.39 4.33,-26.06 -20.33,-34.14 24.36,-6.05 11.24,-4.96 28.24,-13.25 8.53,15.79 0.42,4.35 14.07,14.69l69.73 78.47 23.1 -20.61c107.2,-121.26 154.91,-291.32 95.91,-446.85 -40.87,-107.73 -225.83,-313.41 -289.65,-348.26 -44.9,3.55 -23.46,-3.14 -59.01,-18.47 -23.48,-10.13 -15.56,1.74 -33.59,-14.31 -14.45,-12.86 -10.38,-25.1 -31.39,-27.31l-83.62 -29.37c-11.33,-9.87 -13.49,-12.44 -24.71,-17.71 -29.8,-14.02 -26.56,-1.48 -39.64,-25.32 -21.93,-39.96 -20.39,-21.74 -62.2,-37.18 -47.76,-17.65 -41.31,-54.62 -103.73,-44.14 -13.21,2.22 -29.12,15.15 -32.83,-25.14 -15.59,14.16 -19,23.74 -39.85,12.35 12.05,-10.51 -3.1,17.44 6.87,-8.88 9.1,-24.02 -10.06,-50.14 -29.28,-71.62l-6.64 -7.42c-28.71,-26.08 -55.49,-22.46 -71.7,-45.79l-113.49 -58.84c-15.35,-4.73 -33.24,-19.51 -51.34,-30.53 -25.41,-15.48 -19.91,-15.54 -58.58,-16.41 -0.51,-8.47 -1.6,-21.89 -2.85,-26.11l-42.59 -31.55c-1.44,-0.31 -3.61,-0.26 -5.02,-0.48l-23.02 -6.16c-33.26,-20.93 -27.4,-29.78 -36.5,-11.5l-3.06 -26.44c-41.1,-11.02 -30.67,2.48 -45.45,-27.97 -13.47,2.25 -9.27,0.65 -20.11,4.5 -8.89,3.15 -9.79,5.88 -13.38,8.39l-9.64 -17.16c-17.6,-18.26 2.35,-15.55 -38.64,-17.12l-0.72 -33.6c-37.9,3.74 -18.7,-9.37 -26.88,12.99l-7.84 -33.26 -12.81 16.06c-21.4,-40.01 -39.14,-15.38 -60.12,-39.67 -14.49,-16.78 4.58,-19.63 -12.09,-35.14l-89.14 -64.88c-25.3,14.8 -7.67,1.3 -24.25,25.89 -1.96,-5.8 5.16,1.12 -5.56,-6.75 -0.42,-0.31 -2.08,-1.33 -2.57,-1.62l-51.72 -41.8c-19.48,-12.96 0.42,-3 -24.98,-11.43l-41.16 -6.13c-1.05,-0.07 -9.27,-3.55 -10.33,-4.06 0.92,-17.79 0.53,-20.23 11.88,-25.49l12.25 -0.66c0.58,-0.04 3.57,0.8 4.01,-0.59 0.46,-1.47 2.96,-0.1 4.23,-0.76 -7.54,-32.43 -3.9,-28.84 -41.33,-30 12.51,-23.54 -23.84,-30.83 -41.53,-35.25 -26.17,-6.54 1,0.58 -20.64,-6.84l-26.94 -7.91c-26.88,-9.84 -4.95,1.07 -7.08,-12.36 -2.07,-13.09 7.95,-12.1 -15.6,-14.23 -41.24,255.72 160.3,411.93 324.1,572.47 61.01,59.79 418.42,408.9 466.02,472.13z"/>
   <path class="fil5" d="M1622.41 4261.62l-5.51 233.83c-169.58,51.59 -221.28,-102.8 -361.01,-196.11 -64.56,-43.11 -80.5,-62.82 -136.35,-53.92 -33.54,7.91 -78.99,17.27 -94.9,44.41l24.53 -4.24c54.82,80.81 47.27,51.73 83.85,59.3 0.78,0.16 21.61,-4.97 0.74,16.65l-8.2 6.43c11.16,2.61 7.21,-4 27.47,14 -4.14,12.85 -27.83,25.9 42.29,40.4 13.44,2.78 11.6,1.44 16.3,1.33l9.09 -0.86c0.7,0.06 2.64,0.4 3.39,0.52l16.84 4.34c1.02,0.23 3.21,0.63 4.16,0.84 0.86,0.18 3.04,0.58 3.78,0.73 0.67,0.14 2.89,0.57 3.41,0.67 7.98,1.59 5.16,10.36 19.11,25.85l78.8 59c12.77,4.08 21.92,2.38 28.51,2.28 20.2,-0.3 10.65,-3.2 23.52,7.71l14.49 13.17c1.16,0.94 2.81,2.37 3.97,3.23 21.53,16.02 22.76,4.29 27.05,5.76 20.51,42.16 -23.95,39.58 38.69,56.54l50.8 5.83c-54.75,43.09 15.39,5.79 28.77,12.79 26.62,13.9 -2.46,19.34 30.18,34.59l4.94 5.81c3.81,32.72 27.51,28.12 50.3,53.1 50.32,55.13 44.83,10.54 45.13,64.19 8,-10 4.52,-8.1 19.91,-13.07 0.99,1.47 1.94,2.38 2.28,4.8 4.61,32.89 66.61,43.33 66.62,43.34 19.95,13.76 8.12,13.46 29.37,32.27 1.06,0.94 2.74,2.06 3.83,2.98l19.06 17.1c0.83,0.85 2.35,2.75 3.55,4.1 -37.78,-3.97 -32.18,-28.52 -40.11,5.58 75.95,42.57 16.33,43.48 93.73,47.8l107.25 43.51 42.88 -26.27c19.17,-36.8 360.28,-362.88 396.88,-398.26 20.67,-19.97 115.42,-107 124.99,-133.99l-69.73 -78.47c-13.65,-10.34 -5.54,1.1 -14.07,-14.69 -17,8.29 -3.88,7.2 -28.24,13.25 24.66,8.08 18.53,4.75 20.33,34.14 -17.83,-6.09 -18.95,-1.33 -46.03,-6.87l-4.65 -17.08c-0.21,-0.72 -0.98,-2.58 -1.17,-3.24l-70.83 -26.66c-34.23,-7.7 -15.95,-42.05 -59.66,-77.64 -1.15,-0.93 -2.82,-2.08 -3.94,-3.09 -1.12,-1.01 -2.64,-2.33 -3.69,-3.42 -10.97,-11.38 -8.22,-10.49 -14.84,-22.66l-68.12 -4.52c5.2,-14.79 9.22,-28.06 12.7,-43.6 -18.94,-19.33 -93.78,-49.43 -115.17,-67.1 -2.24,-1.86 -6.14,-6.8 -8.57,-9.97 -0.52,-0.67 -1.41,-2.47 -1.88,-3.12 -18.49,-25.25 -9.19,0.67 -22.2,-33.37l-23.83 6.73c-10.31,-28.15 -2.92,-20.39 -31.72,-27.14 -0.94,-0.22 -3.03,-0.82 -3.93,-1.02l-6.87 -1.93c-8.56,-0.92 -3.46,-3.23 -12.84,5.18 4.6,11.34 -0.6,1.2 9.17,16.2 9.48,14.57 25.5,33.57 27.33,54.39 3.01,34.28 -16.57,55.83 -31.72,66.97 -11,19.58 -18.7,22.68 -41.17,36.93 -12.68,8.04 -25.79,16.4 -39.65,22l-4.45 -225.1c-1.29,-26.4 7.51,-26.98 -2.4,-42.83l-0.69 67.3c-30.96,-3.28 -32.24,-14.36 -44.19,-28.67 -0.88,-1.06 -1.98,-2.8 -2.91,-3.79 -0.91,-0.99 -2.27,-2.49 -3.26,-3.41 -19.68,-18.34 -39.45,-4.79 -23.5,-59.04l-26.8 13.05c-8.47,-33.95 -16.2,-14 -20.88,-47.86 -9.23,17.36 11.46,14.96 -19.72,10.3 -18.42,-2.75 -4,-4.02 -28.34,-10.29 12.35,-11.62 -7.48,-8.51 26.94,-13.25 -35.09,-0.78 -37.28,6.45 -41,-27.74 -8.02,16.56 -14.34,11.28 -21.25,7.04 -1.15,-0.71 -3.84,-3.94 -4.95,-4.97 -0.6,-0.56 -1.84,-2.18 -2.47,-2.78 -29.46,-27.77 -42.36,-26.44 -71.68,-33.85l0.11 -150.61 2.05 598.24z"/>
   <path class="fil6" d="M4713.43 2279.66c-13.51,28.82 -20.05,14.38 -12.54,33.28 12.85,4.11 -9.2,4.48 5.93,-1.29l67.48 43.88c32.28,13.75 29.96,8.93 48.67,-0.87 14.15,34.12 -14.98,-3.07 3.24,24.38 9.66,14.55 28.38,25.84 45.87,30.3 9.66,-41.85 5.38,-1.38 -6.36,-40.22 29.07,24.47 6.41,-4.55 34.21,18.45 13.73,11.36 5.68,13.61 25.12,16.38 -17.35,12.04 -20.53,-0.14 -4.45,30.22 25.92,48.91 27.75,49.72 53.82,70.13 15.17,11.87 -11.08,-1.74 10,18.83 21,20.5 10.53,-7.68 42.41,33.19 8.15,10.44 19.13,25.34 31.78,27.13l24.89 -7.96c16.33,24.11 14.32,6.26 7.09,27.08 25.07,-4.92 6.86,5.61 26.62,-12.87 2.67,58.97 10.3,9.15 39.9,49.28 12.33,16.71 12.16,69.53 10.28,93.01 36.16,1.49 35.07,9.47 78.07,52.43 1.43,1.42 5.41,5.58 6.86,6.96 13.98,13.25 26.24,22.02 42.46,33.58 0.06,0.04 40.66,9.11 10.09,37.63 13.44,3.16 13.56,1.68 24.07,9.79 6.68,5.15 6.72,9.14 8.71,11.32l11.73 9.78c0.8,0.91 2.54,2.32 3.27,3.32 9.44,12.76 4.17,-15.25 7.22,20.78 21.59,-14.33 35.59,-6.56 55.22,13.15l6.74 7.38c0.98,1.12 2.31,2.65 3.24,3.81l6.06 7.98c15.11,21.27 7.45,21.64 25.28,29.82 29.99,13.76 12.63,-2.39 31.59,22.68 43.25,57.21 42.18,15.45 56.33,43.08 9.58,18.71 -17.24,5.66 25.94,39.92l20 14.73c31.55,22.4 4.35,8.17 14.43,24.77 6.28,10.34 10.39,7.07 22.96,13.01l2.92 -1247.39c3.31,-53.88 -36.24,-98.08 -80.73,-103.75 -49.31,-6.29 -105.09,23.43 -140.94,46.12l-469.05 294.1c-28.15,17.85 -220.05,142.55 -226.43,152.67z"/>
   <path class="fil7" d="M2950.7 3381.38l2.6 -1135.54 0.45 -222.29c27.92,12.15 1.45,22.16 31.1,45.03 1.13,0.88 2.89,1.9 4.13,2.69l9.38 4.53c12.48,6.44 16.99,3.99 21.4,17.44 2.72,8.31 -6.62,22.03 14.39,35.06 1.24,0.77 3.11,1.67 4.49,2.35 13.29,6.57 34.29,9.54 52.59,10.44 -10.64,26.17 1.23,40.02 28.8,46.74l-18.57 18.65c14.79,-3.86 29.86,-1.57 44.25,10.22 15.01,12.3 19.35,14.84 23.43,38.95 13.52,-21.62 4.88,-7.24 32.15,-18.34 1.62,1.61 5.37,6.01 6.44,7.36l37.41 45c33.78,23.83 29.15,11.08 26.5,49.08 33.63,3.74 11.25,6.92 29.08,9.69 21.48,3.35 -4,1.62 23.61,-7.39 22.38,43.7 -0.02,10.71 24.59,27.22l112.23 86.55c0.57,0.59 1.76,2.22 2.38,2.84 24.25,24.22 15.48,3.43 30.23,36.71 11.19,25.26 28.11,41.07 44.96,65.35 10.53,-7.67 7.93,-8.34 9.75,-11.06 0.42,-0.64 2.26,-3.33 2.46,-5.25 0.11,-1.11 0.4,-1.78 0.85,-2.56 14.09,10.9 17.22,12.15 33.07,20.85 0.98,52.04 -11.69,12.22 15.72,52.94l19.7 -13.57c1.29,-0.76 5.06,-2.37 6.44,-3.18 30.22,-17.78 25.08,-22.33 38.57,-12.44 26.05,19.12 26.84,33.99 28.32,66.84 22.37,-6.28 4.04,-4.77 20.29,1.82l8.33 4.59c1.34,0.7 3.19,1.71 4.55,2.45l39.52 68.26c-0.29,-1.19 -2.12,2.59 -2.67,4.14l34.56 20.27 -12 25.85c7.42,3.31 9.91,3.8 13.82,5.31l5.93 2.55c0.68,0.18 2.52,0.8 3.25,0.93l27.47 -1.59c20.26,-1.1 36.77,8.7 48.98,26.2l15.45 16.67c1.27,0.93 3.1,1.96 4.43,2.84 53.6,35.26 21.23,39.93 44.27,71.51l108.37 91.54c0.56,0.69 18.84,15.23 19.48,15.51 13.86,6.16 5.6,3.8 22.14,4.85l-25.23 11.83c2.99,3.79 13.48,15.57 14.21,16.81l10.72 25.8c15.91,28.14 50.06,52.32 79.19,66.01 -5.99,13.8 -7.45,13.83 -11.81,25.25 1.28,0.04 24.37,-0.21 24.64,-0.14 22.48,5.75 10.72,6.83 39.52,25.47 34.77,22.52 30.65,67.89 95.66,35.13 -3.94,19.08 -6.55,4.74 0.32,21.46 1.23,3 6.26,8.85 7.32,9.83 11.86,10.85 35.22,20.87 47.79,37.37 22.27,29.22 38.84,21.8 29.83,45.45l38.47 2.42c-12.06,24.36 3.74,9.56 -19.5,39.44 -13.95,17.93 -22.26,26.35 -25.09,51.04 18.86,-12.44 50.79,-53.08 56.16,-79.01 4.43,-31.08 48.63,-92.04 72.44,-116.11 -15.74,-22.13 -35.62,-28.89 -53.66,-49.29l-18.08 -30.38c-18.41,-8.85 -24.8,-23.38 -40.74,-34.82l-82.72 -61.56c-0.99,-0.84 -2.63,-2.05 -3.53,-2.98l-12.3 -21.48c-13.1,-17.49 -6.79,-6.93 -20.6,-15.25 -1.28,-0.77 -3.24,-1.46 -4.47,-2.25 -1.18,-0.76 -2.94,-1.75 -4.05,-2.56l-83.97 -80.73 -30.05 -4.39c-5.86,-49.23 -25.64,-11.12 -29.06,-66.75 -35.14,12.46 -36.81,-15.53 -53.61,-35.68l-36.27 -31.38c-0.68,-0.57 -2.35,-1.73 -2.99,-2.25 -15.24,-12.6 -28.86,-35.51 -46.24,-46.52 -21.55,-13.65 -11.27,0.32 -24.46,-22.42 -24.39,-42.06 -25.72,-18.42 -37.54,-28.88 -7.51,-6.65 22.2,-17.8 -24.46,-6.11 8.92,-34.94 -4.23,-36.65 -41.6,-40.89 -6.42,-52.19 -14.78,-43.02 -47.89,-62.62l-15.01 -12.43c-8.53,-8.92 -4.86,-7.69 -11.22,-12.95 -22.01,-18.2 8.82,10.19 -12.23,-6.8 -13.33,-10.76 -18.96,-27.66 -38.38,-31.27 -35.32,-6.58 -7.85,-36.22 -68.22,-66.56l-19.09 -8.64c-8.93,-5.65 -4.52,-0.94 -12.98,-12.55 -18.74,-25.7 2.26,-7.84 -35.18,-34.76l-26.78 -27.76c-12.79,-18.98 -29.27,-27.4 -39.74,-36.7l-18.01 -24.2c-9.43,-11.43 -13.45,-20.88 -8.69,-38.41 7.7,-28.37 5.58,-25.7 -14.18,-47.39l-61.97 -34.12c4.25,-21.36 -1.37,-12.67 12.41,-26.3l-33.45 -0.85c-1.62,-35.11 -18.19,-52.49 -33.64,-61.99 -20.11,-12.36 -17.8,2.21 -38.77,-9.21l-16.96 -12.73c4.06,-48.97 -2.61,1.47 12.26,-31.36 -16.6,-7.62 -6.85,3.72 -13.75,-13.75 -23.7,10.84 7.73,7.04 -24.02,9.07 -34.68,2.21 -47.22,-3.9 -66.97,-28.37l-9.85 -12.09c14.44,-10.94 17.05,-7.49 18.71,-30.82 -12.83,-5.6 -8.54,-2.94 -17.29,-10.06 -37.52,-30.53 1.95,-40.48 -48.85,-40.84 -6.17,-0.04 -24.49,1.69 -42.28,1.22 12.67,-37.06 -13.95,-20.17 -27.92,-44.1 12.37,-12.08 23.96,-4.49 26.15,-5.12 -24.09,-24.02 -23.06,-11.78 -45.85,-26.62 -10.31,-6.71 -1.12,-0.84 -10.44,-10.5 -26.04,-26.96 -25.13,-13.64 -34.1,-47.43 -61.3,-20.49 -97.51,37.39 -110.77,86 -18.99,69.61 -11.91,1205.17 -6.81,1407.69 0.56,22.35 -2.93,84.88 8.45,99.23z"/>
   <path class="fil8" d="M4873.03 4003.57c-6.33,64.58 -35.97,169.88 -50.88,242.53 -31.02,151.1 -70.21,344.52 -92.13,500.08 -23.47,166.55 -8.13,135.06 5.48,261.54 5.41,14.11 -3.21,0.63 12.25,20.27 6.8,8.65 12.58,14.85 20.48,20.99 45.19,35.08 167.84,25.24 214.84,7.84 139.7,-51.73 177.81,-292.78 225.4,-435.31 15.75,-47.15 83.25,-212.1 80.59,-243.39l2.37 -24.21c-11.73,-0.56 -13.16,0.85 -20.21,-3.2l-7.38 -11.64c-34.72,-64.35 -26.76,-22.4 -50.21,-45.41l-113.7 -119.34c-0.94,-1.1 -2.27,-2.61 -3.24,-3.67 -10.86,-11.81 -17.62,-15.28 -30.24,-24.92 -1.43,-1.09 -14.56,-11.92 -15.18,-12.47 -1.08,-0.98 -2.59,-2.39 -3.64,-3.38l-15.59 -16.38c-0.55,-0.62 -1.72,-2.21 -2.23,-2.8 -0.49,-0.55 -1.62,-2.08 -2.11,-2.6l-7.44 -7.28c-0.75,-0.64 -2.43,-1.95 -3.25,-2.6 -25.66,-20.38 -26.89,-11.62 -37.25,-24.48 -32.34,-40.13 -25.79,-21.64 -33.22,-28.04 -16.83,-14.5 13.28,18.39 -5.62,-10.75l-32.07 -34.69c-0.53,-2.29 -2.27,-2.57 -3.48,-3.79 -5.73,20.46 -12.82,27.82 -32.34,7.1z"/>
   <path class="fil9" d="M2953.3 2245.84l51.22 50.47c11.45,11.48 25.89,18.63 30.98,26.47 11.28,17.34 -15.29,3.55 23.96,28.98l37.37 31.37c29.21,26.93 29.38,15.01 52.22,43.55 18.74,23.42 20.71,33.61 42.56,19.59 -7.12,27.89 -12.38,2.56 53.04,63.88l114.05 101.33c14.11,19.8 -18.85,1.82 21.64,21.38l54.64 31.38c1.12,0.81 2.64,2.19 3.66,3.07 1.02,0.88 2.4,2.48 3.32,3.41l13.64 19.97c11.11,18.01 -2.79,4.26 27.28,21.64 13.64,7.88 3.49,0.93 12.33,8.07 1.08,0.87 2.57,2.22 3.6,3.15 1.02,0.93 2.39,2.44 3.37,3.42l34.36 25.7c4.61,2.52 4.19,2.4 10.99,10.49 26.35,31.32 28.53,21.5 29.83,53.49 12.04,-9.58 20.51,-11.76 36.41,-1.62 20.87,13.32 6.6,16.15 21.34,30.75l8.16 5.78c0.6,0.49 2.21,1.77 2.83,2.29 44.08,36.76 -19.71,43.11 34.65,36.53 -39.09,0 -2.49,-2.55 -18.95,14.48 77.96,-2.06 75.34,6.28 121.76,42.44 33.88,26.39 52.91,48.92 82.25,80.19 41.43,55.62 57.29,50.43 126.06,150.87 41.94,61.26 194.35,293.49 239.11,325.2 31.86,22.58 76.56,26.54 109.65,3.96 23.16,-15.8 56.05,-52.19 65.18,-78.36 2.83,-24.69 11.14,-33.11 25.09,-51.04 23.24,-29.88 7.44,-15.08 19.5,-39.44l-38.47 -2.42c9.01,-23.65 -7.56,-16.23 -29.83,-45.45 -12.57,-16.5 -35.93,-26.52 -47.79,-37.37 -1.06,-0.98 -6.09,-6.83 -7.32,-9.83 -6.87,-16.72 -4.26,-2.38 -0.32,-21.46 -65.01,32.76 -60.89,-12.61 -95.66,-35.13 -28.8,-18.64 -17.04,-19.72 -39.52,-25.47 -0.27,-0.07 -23.36,0.18 -24.64,0.14 4.36,-11.42 5.82,-11.45 11.81,-25.25 -29.13,-13.69 -63.28,-37.87 -79.19,-66.01l-10.72 -25.8c-0.73,-1.24 -11.22,-13.02 -14.21,-16.81l25.23 -11.83c-16.54,-1.05 -8.28,1.31 -22.14,-4.85 -0.64,-0.28 -18.92,-14.82 -19.48,-15.51l-108.37 -91.54c-23.04,-31.58 9.33,-36.25 -44.27,-71.51 -1.33,-0.88 -3.16,-1.91 -4.43,-2.84l-15.45 -16.67c-12.21,-17.5 -28.72,-27.3 -48.98,-26.2l-27.47 1.59c-0.73,-0.13 -2.57,-0.75 -3.25,-0.93l-5.93 -2.55c-3.91,-1.51 -6.4,-2 -13.82,-5.31l12 -25.85 -34.56 -20.27c0.55,-1.55 2.38,-5.33 2.67,-4.14l-39.52 -68.26c-1.36,-0.74 -3.21,-1.75 -4.55,-2.45l-8.33 -4.59c-16.25,-6.59 2.08,-8.1 -20.29,-1.82 -1.48,-32.85 -2.27,-47.72 -28.32,-66.84 -13.49,-9.89 -8.35,-5.34 -38.57,12.44 -1.38,0.81 -5.15,2.42 -6.44,3.18l-19.7 13.57c-27.41,-40.72 -14.74,-0.9 -15.72,-52.94 -15.85,-8.7 -18.98,-9.95 -33.07,-20.85 -0.45,0.78 -0.74,1.45 -0.85,2.56 -0.2,1.92 -2.04,4.61 -2.46,5.25 -1.82,2.72 0.78,3.39 -9.75,11.06 -16.85,-24.28 -33.77,-40.09 -44.96,-65.35 -14.75,-33.28 -5.98,-12.49 -30.23,-36.71 -0.62,-0.62 -1.81,-2.25 -2.38,-2.84l-112.23 -86.55c-24.61,-16.51 -2.21,16.48 -24.59,-27.22 -27.61,9.01 -2.13,10.74 -23.61,7.39 -17.83,-2.77 4.55,-5.95 -29.08,-9.69 2.65,-38 7.28,-25.25 -26.5,-49.08l-37.41 -45c-1.07,-1.35 -4.82,-5.75 -6.44,-7.36 -27.27,11.1 -18.63,-3.28 -32.15,18.34 -4.08,-24.11 -8.42,-26.65 -23.43,-38.95 -14.39,-11.79 -29.46,-14.08 -44.25,-10.22l18.57 -18.65c-27.57,-6.72 -39.44,-20.57 -28.8,-46.74 -18.3,-0.9 -39.3,-3.87 -52.59,-10.44 -1.38,-0.68 -3.25,-1.58 -4.49,-2.35 -21.01,-13.03 -11.67,-26.75 -14.39,-35.06 -4.41,-13.45 -8.92,-11 -21.4,-17.44l-9.38 -4.53c-1.24,-0.79 -3,-1.81 -4.13,-2.69 -29.65,-22.87 -3.18,-32.88 -31.1,-45.03l-0.45 222.29z"/>
   <path class="fil10" d="M935.13 4540.34c13.93,-11.24 11.51,-6.1 23.31,0.8l28.43 27.88c0.97,0.9 2.42,2.48 3.42,3.26l19.12 7.43c23.22,7.42 18.71,19.17 34.63,35.09l62.35 40.45c64.13,29.77 15.77,25.34 70.98,51.13 1.55,0.72 8.96,3.78 10.18,4.47 0.57,0.33 2.19,1.38 2.72,1.72l9.86 7.62c1.17,0.73 4.74,2.53 6.11,3.3l38.55 20.2c23.15,12.83 52.32,27.63 65.76,44.04 41.47,50.64 48.53,19.25 86.46,51.21 55.38,46.66 65.38,39.55 79.17,58.24 40.59,55.05 59.2,16.56 62.91,74.54 77.27,2.33 -10.67,26.42 74.96,35.07 -1.07,24.69 3.27,10.74 -5.84,26.47 40.41,-10 22,3.37 23,26.29l79.87 7.07c34.04,6.23 44.84,46.61 66.08,58.53l34.05 21.53c27.44,31.59 13.59,7.28 45.44,29.77l26.11 23.04 0.47 -156.18 73.91 -39.88c13.89,-5.61 11.75,-5.12 22.82,-13.54 15.8,-12 11.5,-7.57 22.08,-21.69l-107.25 -43.51c-77.4,-4.32 -17.78,-5.23 -93.73,-47.8 7.93,-34.1 2.33,-9.55 40.11,-5.58 -1.2,-1.35 -2.72,-3.25 -3.55,-4.1l-19.06 -17.1c-1.09,-0.92 -2.77,-2.04 -3.83,-2.98 -21.25,-18.81 -9.42,-18.51 -29.37,-32.27 -0.01,-0.01 -62.01,-10.45 -66.62,-43.34 -0.34,-2.42 -1.29,-3.33 -2.28,-4.8 -15.39,4.97 -11.91,3.07 -19.91,13.07 -0.3,-53.65 5.19,-9.06 -45.13,-64.19 -22.79,-24.98 -46.49,-20.38 -50.3,-53.1l-4.94 -5.81c-32.64,-15.25 -3.56,-20.69 -30.18,-34.59 -13.38,-7 -83.52,30.3 -28.77,-12.79l-50.8 -5.83c-62.64,-16.96 -18.18,-14.38 -38.69,-56.54 -4.29,-1.47 -5.52,10.26 -27.05,-5.76 -1.16,-0.86 -2.81,-2.29 -3.97,-3.23l-14.49 -13.17c-12.87,-10.91 -3.32,-8.01 -23.52,-7.71 -6.59,0.1 -15.74,1.8 -28.51,-2.28l-78.8 -59c-13.95,-15.49 -11.13,-24.26 -19.11,-25.85 -0.52,-0.1 -2.74,-0.53 -3.41,-0.67 -0.74,-0.15 -2.92,-0.55 -3.78,-0.73 -0.95,-0.21 -3.14,-0.61 -4.16,-0.84l-16.84 -4.34c-0.75,-0.12 -2.69,-0.46 -3.39,-0.52l-9.09 0.86c-4.7,0.11 -2.86,1.45 -16.3,-1.33 -70.12,-14.5 -46.43,-27.55 -42.29,-40.4 -20.26,-18 -16.31,-11.39 -27.47,-14l8.2 -6.43c20.87,-21.62 0.04,-16.49 -0.74,-16.65 -36.58,-7.57 -29.03,21.51 -83.85,-59.3l-24.53 4.24c-41.42,18.88 -82.08,123.52 -92.38,173.68 -7.2,35.05 -14.23,54.82 2.87,76.83z"/>
   <path class="fil11" d="M1874.51 5451.05c19.11,-73.64 7.63,-171.89 8.25,-251.56l-26.11 -23.04c-31.85,-22.49 -18,1.82 -45.44,-29.77l-34.05 -21.53c-21.24,-11.92 -32.04,-52.3 -66.08,-58.53l-79.87 -7.07c-1,-22.92 17.41,-36.29 -23,-26.29 9.11,-15.73 4.77,-1.78 5.84,-26.47 -85.63,-8.65 2.31,-32.74 -74.96,-35.07 -3.71,-57.98 -22.32,-19.49 -62.91,-74.54 -13.79,-18.69 -23.79,-11.58 -79.17,-58.24 -37.93,-31.96 -44.99,-0.57 -86.46,-51.21 -13.44,-16.41 -42.61,-31.21 -65.76,-44.04l-38.55 -20.2c-1.37,-0.77 -4.94,-2.57 -6.11,-3.3l-9.86 -7.62c-0.53,-0.34 -2.15,-1.39 -2.72,-1.72 -1.22,-0.69 -8.63,-3.75 -10.18,-4.47 -55.21,-25.79 -6.85,-21.36 -70.98,-51.13l-62.35 -40.45c-15.92,-15.92 -11.41,-27.67 -34.63,-35.09l-19.12 -7.43c-1,-0.78 -2.45,-2.36 -3.42,-3.26l-28.43 -27.88c-11.8,-6.9 -9.38,-12.04 -23.31,-0.8 -11.24,149.14 282.56,423.37 425.23,493.29 93.44,45.79 157.78,30.29 262.56,46.27 1.93,84.67 -9.37,267.2 5.02,338.63 12.17,60.38 45.04,61.84 109.02,61.68 76.35,-0.19 86.46,9.48 137.55,-29.16z"/>
   <path class="fil12" d="M4873.03 4003.57c19.52,20.72 26.61,13.36 32.34,-7.1 1.21,1.22 2.95,1.5 3.48,3.79l32.07 34.69c18.9,29.14 -11.21,-3.75 5.62,10.75 7.43,6.4 0.88,-12.09 33.22,28.04 10.36,12.86 11.59,4.1 37.25,24.48 0.82,0.65 2.5,1.96 3.25,2.6l7.44 7.28c0.49,0.52 1.62,2.05 2.11,2.6 0.51,0.59 1.68,2.18 2.23,2.8l15.59 16.38c1.05,0.99 2.56,2.4 3.64,3.38 0.62,0.55 13.75,11.38 15.18,12.47 12.62,9.64 19.38,13.11 30.24,24.92 0.97,1.06 2.3,2.57 3.24,3.67l113.7 119.34c23.45,23.01 15.49,-18.94 50.21,45.41l7.38 11.64c7.05,4.05 8.48,2.64 20.21,3.2l-2.37 24.21 26 -48.89c6.23,-16.83 12.88,-33.78 18.86,-49.77 12.21,-32.69 32.78,-73.47 35.44,-105.16 1.41,-17.06 5.2,-31.56 -6,-44.3 -15.81,-17.98 -3.91,-15.33 -27.29,-5.42 0.4,-1.67 0.71,-4.03 0.69,-5.1 -0.54,-31.86 -27.73,-48.05 -62.27,-42.87l19.21 -34.3c-17.29,-4.13 -15.1,-3.02 -28.86,-12.84 -48.79,-34.8 -27.28,-30.41 -19.96,-55.04 -45.98,-4.52 -2.24,-13.75 -50.4,-33.56l-52.37 -25.27c-3.17,-1.04 -13.13,-0.15 -23.75,-7.56 -53.31,-37.2 -19.07,-54.03 -17.83,-55.36 -6.54,-4.8 -4.16,-3.84 -14.93,-8.63 -1.53,-0.68 -9.85,-2.2 -12.08,-2.7 13.56,-7.39 18.3,11.27 9.87,-26.14 -5.87,-26.08 -3.93,-14.56 -17.96,-25.94l-55.63 -50.33c-28.06,-23.35 -10.41,-5.4 -29.42,-12.33l-31.22 -13.39c-0.71,-28.29 -2.61,-25.89 -7.78,-47.21l-68.35 337.56z"/>
   <path class="fil13" d="M2396.15 3593.96c63.82,34.85 248.78,240.53 289.65,348.26 59,155.53 11.29,325.59 -95.91,446.85l-23.1 20.61c-9.57,26.99 -104.32,114.02 -124.99,133.99 -36.6,35.38 -377.71,361.46 -396.88,398.26 46.14,-25.45 236.61,-227.26 278.59,-269.1 23.54,-23.48 40.44,-41.12 69.2,-68.3 66.83,-63.16 220.79,-216.52 263.55,-279.3 65.04,-95.47 93.38,-197.41 71.01,-315.88 -36.12,-191.24 -279.12,-393.43 -420.58,-533.79l-206.21 -206.3c-185.14,-172.98 -166.28,-151.19 -162.36,-385.79 2.25,-134.5 -5.12,-431.78 5.59,-542.12 11.37,-117.05 116.69,-51.56 170.76,-15.54 -38.14,-64.56 -116.62,-80.81 -200.19,-55.86 -12.27,121.47 -5.72,508.22 -6.73,675.38 -0.8,131.87 -15.77,142.02 35.18,193.09l340.22 340.3c29.61,29.76 95.2,84.44 113.2,115.24z"/>
   <path class="fil14" d="M3843.92 5007.06c87.22,-69.95 -5.01,-466.72 -26.97,-574.06 -55.16,-269.51 -162.07,-728.24 -180.41,-1001.47 -5.3,-79.02 -8.53,-426.56 16.47,-474.27 52.52,-100.17 174.77,50.27 212.8,70.23 -29.34,-31.27 -48.37,-53.8 -82.25,-80.19 -46.42,-36.16 -43.8,-44.5 -121.76,-42.44 -7.11,18.97 -20.34,13.3 -31.41,36.76 -21.64,45.87 -15.83,161.93 -15.79,209.93 0.07,89.46 -5.06,212.79 4.04,297.39 38.89,361.55 117.49,670.14 187.1,1023.44 32.99,167.43 87.79,364.41 38.18,534.68z"/>
   <path class="fil15" d="M2370.06 2518.74c21.05,27.12 99.7,-1.88 123.19,-13.08 45.05,-21.46 55.1,-41.12 80.37,-78.06 107.08,-156.52 42.98,-307.25 -70.35,-434.05 -12.93,-14.46 -22.92,-24.41 -37.17,-38.39l-79.15 -79.04c-15.75,-16.17 -23.13,-27.15 -45.33,-40.31 13.14,25.6 49.39,55.99 70.48,77.12 68.91,69.04 153.84,159.23 181.97,263.98 27.2,101.31 8.08,148.7 -33.48,230.68 -17.55,34.61 -38.68,72.4 -66.42,84.98 -25.53,11.56 -91.75,31.29 -124.11,26.17z"/>
   <path class="fil16" d="M1622.41 4261.62c-19.71,30.53 2.11,155.33 -14.82,202.84 -35.44,40.5 -98.73,12.51 -135.35,-9.97 -49.7,-30.51 -269.64,-274.73 -352.7,-209.07 55.85,-8.9 71.79,10.81 136.35,53.92 139.73,93.31 191.43,247.7 361.01,196.11l5.51 -233.83z"/>
   <path class="fil17" d="M1882.76 5199.49c-0.62,79.67 10.86,177.92 -8.25,251.56 35.65,-24.84 39.77,-44.78 39.96,-92.69 0.23,-56.92 -9.03,-273.87 11.21,-313.18l31.46 -41.75 -73.91 39.88 -0.47 156.18z"/>
   <path class="fil17" d="M1970.37 1688.91c-82.92,-88.71 15.54,-324.58 -72.34,-372.32 23.45,98.48 -10.08,292.68 14.32,367.17l58.02 5.15z"/>
   <path class="fil18" d="M1992.62 4160.95c15.15,-11.14 34.73,-32.69 31.72,-66.97 -1.83,-20.82 -17.85,-39.82 -27.33,-54.39 -9.77,-15 -4.57,-4.86 -9.17,-16.2l-7.49 1.75 -44.03 -2.47c-3.12,32.1 -5.89,67.39 -3.52,98.73 3.18,42.05 16.6,49.88 59.82,39.55z"/>
   <path class="fil18" d="M1621.83 2708.77l-0.76 -116.84c-41.32,-2.41 -72.97,27.36 -80.5,57.43 -11.11,44.4 11.17,86.57 59.03,93.82 21.69,-18.79 10.33,-11.97 22.23,-34.41z"/>
   <path class="fil19" d="M1621.83 2708.77c-11.9,22.44 -0.54,15.62 -22.23,34.41 -47.86,-7.25 -70.14,-49.42 -59.03,-93.82 7.53,-30.07 39.18,-59.84 80.5,-57.43l-2.5 -38.77c-35.06,-2.38 -119.41,69.75 -110.36,120.99 8.14,46.12 102.19,122.19 108.02,136.33l5.6 -101.71z"/>
   <path class="fil19" d="M1907.35 3994.78l4.45 225.1c13.86,-5.6 26.97,-13.96 39.65,-22 22.47,-14.25 30.17,-17.35 41.17,-36.93 -43.22,10.33 -56.64,2.5 -59.82,-39.55 -2.37,-31.34 0.4,-66.63 3.52,-98.73l44.03 2.47c-11.82,-24.27 -34.87,-42.53 -57.67,-56.95 -1.18,1.56 -2.52,3.8 -3.2,4.93l-5.72 9.4c-13.63,23.55 4.31,-4.29 -6.41,12.26z"/>
  </g>
 </g>
</svg>
