<?xml version="1.0" encoding="UTF-8"?>
<!DOCTYPE svg PUBLIC "-//W3C//DTD SVG 1.1//EN" "http://www.w3.org/Graphics/SVG/1.1/DTD/svg11.dtd">
<!-- Creator: CorelDRAW 2017 -->
<svg xmlns="http://www.w3.org/2000/svg" xml:space="preserve" width="66.1458mm" height="66.1458mm" version="1.1" style="shape-rendering:geometricPrecision; text-rendering:geometricPrecision; image-rendering:optimizeQuality; fill-rule:evenodd; clip-rule:evenodd"
viewBox="0 0 6614.58 6614.58"
 xmlns:xlink="http://www.w3.org/1999/xlink">
 <defs>
  <style type="text/css">
   <![CDATA[
    .fil0 {fill:#FEFEFE}
   ]]>
  </style>
 </defs>
 <g id="Слой_x0020_1">
  <metadata id="CorelCorpID_0Corel-Layer"/>
  <g id="_44042.svg">
   <g>
    <path class="fil0" d="M683.08 3307.29l0 1978.41 2624.21 0 2624.21 0 0 -1978.41 0 -1978.41 -2624.21 0 -2624.21 0 0 1978.41zm4652.23 -1611.43c1.64,4.51 -228.8,238.64 -753.64,765.94 -1216.16,1221.49 -1117.34,1123.49 -1145.22,1137.84 -85.29,43.47 -196.41,35.68 -267.34,-18.86 -18.04,-13.94 -1712.3,-1724.19 -1845.97,-1863.6 -9.84,-10.25 -16.4,-20.5 -15.17,-22.96 2.05,-3.28 563.39,-4.51 2014.08,-4.51 1791.44,0 2011.21,0.82 2013.26,6.15l0 0zm-3618.95 930.78c362.88,367.39 660.16,670.4 660.16,672.86 0,4.1 -1298.99,1335.07 -1317.44,1349.83 -3.69,3.28 -8.61,4.51 -11.07,2.87 -4.51,-2.87 -6.15,-2677.52 -1.64,-2689.82 1.64,-3.69 4.1,-6.15 6.15,-5.33 1.64,0.82 300.55,301.79 663.84,669.59zm3853.08 690.9c0.82,843.03 -0.41,1328.51 -2.87,1332.61 -3.28,4.92 -10.25,0 -36.08,-26.65 -331.31,-335.82 -1280.12,-1312.11 -1279.3,-1316.21 2.05,-9.84 1304.72,-1317.85 1311.28,-1317.03 5.33,0.83 6.15,151.72 6.97,1327.28zm-2791.09 383.79c77.91,77.91 155.4,152.53 172.21,165.24 107.84,82.83 241.92,123.42 388.71,118.09 95.13,-3.28 177.96,-24.19 256.27,-63.96 74.63,-38.13 98,-57.41 249.3,-210.35 86.52,-87.33 144.34,-143.1 148.44,-141.87 8.61,2.05 1319.48,1344.5 1317.84,1349.83 -1.23,3.28 -562.97,4.51 -2002.19,4.51 -1819.31,0 -2000.55,-0.41 -2000.55,-6.56 0,-6.97 1317.44,-1356.8 1324.41,-1356.8 2.46,0 67.65,63.97 145.56,141.87l0 0z"/>
   </g>
  </g>
 </g>
</svg>
