<?xml version="1.0" encoding="UTF-8"?>
<!DOCTYPE svg PUBLIC "-//W3C//DTD SVG 1.1//EN" "http://www.w3.org/Graphics/SVG/1.1/DTD/svg11.dtd">
<!-- Creator: CorelDRAW 2017 -->
<svg xmlns="http://www.w3.org/2000/svg" xml:space="preserve" width="66.1458mm" height="66.1458mm" version="1.1" style="shape-rendering:geometricPrecision; text-rendering:geometricPrecision; image-rendering:optimizeQuality; fill-rule:evenodd; clip-rule:evenodd"
viewBox="0 0 6614.58 6614.58"
 xmlns:xlink="http://www.w3.org/1999/xlink">
 <defs>
  <style type="text/css">
   <![CDATA[
    .fil0 {fill:#68FCF0}
   ]]>
  </style>
 </defs>
 <g id="Слой_x0020_1">
  <metadata id="CorelCorpID_0Corel-Layer"/>
  <g id="_2447545084048">
   <path class="fil0" d="M684.88 5366.29l0 5.38 0 22.96c0.11,95.45 2.86,140.52 51.04,238.18 13.36,27.09 23.93,54.49 44.02,78.91 94.65,115 228.06,217.98 386.4,217.98l4281.91 0c66.1,0 140.08,-29.04 184.64,-50.97 162.45,-79.94 296.82,-254.82 296.82,-430.49 0,-180.53 -36.06,-312.95 -171.63,-432.75 -96.57,-85.34 -213.37,-140.9 -391.78,-140.9l-4118.01 0c-321.44,0 -563.41,239.8 -563.41,491.7z"/>
   <path class="fil0" d="M684.88 1166.33c0,180.53 36.06,312.95 171.63,432.75 96.57,85.34 213.37,140.9 391.78,140.9l4118.01 0c321.44,0 563.41,-239.8 563.41,-491.7l0 -5.38 0 -22.95c-0.11,-95.46 -2.86,-140.53 -51.04,-238.19 -24.51,-49.68 -61.12,-106.55 -100.21,-145.64 -15.82,-15.82 -13.72,-10.95 -28.68,-22.54 -87.18,-67.59 -177.75,-128.71 -301.53,-128.71l-4281.91 0c-66.72,0 -139.51,28.81 -184.57,51.04 -27.09,13.36 -54.49,23.93 -78.91,44.02l-89.27 84.87c-46.38,59.82 -27.43,16.04 -74.23,110.16 -25.11,50.5 -54.48,121.31 -54.48,191.37z"/>
   <path class="fil0" d="M684.88 3266.31c0,164.34 30.84,284.89 145.64,407.52 67.17,71.75 215.43,155.89 325.58,155.89l4302.39 0c152.84,0 281.96,-103.17 371.39,-212.51 23.57,-28.82 27.73,-42.73 45.25,-77.68 30.48,-60.84 48.41,-122.81 54.58,-184.4l0 -97.33c-10,-99.58 -50.56,-196.04 -118.43,-282.81 -76.02,-97.21 -226.02,-190.14 -352.79,-190.14l-4302.39 0c-67.64,0 -138.23,26.44 -182.61,53 -116.13,69.53 -169.23,107.85 -234.03,237.19 -27.35,54.6 -54.58,114.38 -54.58,191.27z"/>
  </g>
 </g>
</svg>
