<?xml version="1.0" encoding="UTF-8"?>
<!DOCTYPE svg PUBLIC "-//W3C//DTD SVG 1.1//EN" "http://www.w3.org/Graphics/SVG/1.1/DTD/svg11.dtd">
<!-- Creator: CorelDRAW 2017 -->
<svg xmlns="http://www.w3.org/2000/svg" xml:space="preserve" width="66.1458mm" height="66.1458mm" version="1.1" style="shape-rendering:geometricPrecision; text-rendering:geometricPrecision; image-rendering:optimizeQuality; fill-rule:evenodd; clip-rule:evenodd"
viewBox="0 0 6614.58 6614.58"
 xmlns:xlink="http://www.w3.org/1999/xlink">
 <defs>
  <style type="text/css">
   <![CDATA[
    .fil0 {fill:#FEFEFE}
   ]]>
  </style>
 </defs>
 <g id="Слой_x0020_1">
  <metadata id="CorelCorpID_0Corel-Layer"/>
  <path class="fil0" d="M2335.77 1894.7c81.44,6.78 146.04,33.7 201.5,69.62 65.22,42.24 82.77,79.37 107.77,163.36 81.17,272.74 47.83,595.37 18.41,874.18 -7.02,66.47 -18.29,118.56 -41.62,173.03 -23.51,54.92 -36.49,74.9 -70.77,87.38 -123.28,44.89 -245.01,-98.69 -309.25,-177.81 -90.18,-111.09 -192.5,-293.86 -260.01,-429.1 -29.57,-59.25 -54.72,-97.69 -82.98,-154.26l-222.12 -466.98c-28.35,-63.78 -37.46,-106.65 -83.17,-154.06 -102.63,-106.45 -182.49,-75.68 -364.85,-75.73 -89.45,-0.02 -621.99,-7.04 -685.05,4.05 -34.73,6.12 -59.02,16.1 -82.02,30.96 -27.56,17.81 -41.53,41.7 -46.3,68.97l0 49.26c11.72,82.7 73.69,179.42 96.9,235.62 149.49,361.91 411.54,831.13 623.96,1183.53 161.07,267.2 410.22,601.16 608.67,837.33 117.49,139.83 89.54,93.91 181.51,179.98 64.68,60.54 126.72,108.39 201.46,160.04 560.6,387.43 770.1,390.77 1416.71,390.77 288.04,0 247.1,-178.31 260.39,-349.64 6.66,-85.82 28.02,-178.43 59.41,-245.61 16.64,-35.62 36.95,-69.44 61.28,-96.87 116.68,-131.54 233.97,-42.58 340.8,60.62l210.99 229.59c82.38,106.51 280.45,298.35 411.49,356.68 225.61,100.43 479.17,44.02 700.29,45.16 222.88,1.14 610.1,40.84 610.1,-169.38 0,-132.48 -67.78,-201.74 -119.4,-287.28 -97.68,-161.9 -502.05,-567.76 -656.97,-698.65 -37.13,-31.37 -161.26,-167.02 -161.26,-256.72 0,-169.85 296.85,-507.99 421.18,-674.61 142.24,-190.62 848.62,-1053.8 324.41,-1053.8l-989.35 6.53c-52.3,-6.07 -90.36,0.95 -126.47,29.93 -35.1,28.17 -52.32,57.88 -70.31,99.14 -90.21,206.87 -143.76,364.16 -266.39,569.58 -22.69,37.99 -33.12,63.59 -56.32,101.83l-196.94 311.42c-23.57,35.58 -45.08,62.54 -69.96,99.49 -42.76,63.52 -211.82,239.37 -268.99,239.37 -163.36,0 -169.55,-245.33 -169.45,-417.98l21.1 -857.07c-23.13,-223.12 -95.79,-274.95 -280.66,-306.77 -229.99,-39.59 -739.64,-29.51 -957.55,14.5 -93.9,18.96 -237.69,88.89 -240.17,200.4z"/>
 </g>
</svg>
